<svg width="32" height="32" viewBox="0 0 32 32" fill="none" xmlns="http://www.w3.org/2000/svg">
<rect width="32" height="32" rx="4" fill="#F26969"/>
<path d="M15 17H17V11H15V17ZM16 21C16.2833 21 16.521 20.904 16.713 20.712C16.9043 20.5207 17 20.2833 17 20C17 19.7167 16.9043 19.479 16.713 19.287C16.521 19.0957 16.2833 19 16 19C15.7167 19 15.4793 19.0957 15.288 19.287C15.096 19.479 15 19.7167 15 20C15 20.2833 15.096 20.5207 15.288 20.712C15.4793 20.904 15.7167 21 16 21ZM16 26C14.6167 26 13.3167 25.7373 12.1 25.212C10.8833 24.6873 9.825 23.975 8.925 23.075C8.025 22.175 7.31267 21.1167 6.788 19.9C6.26267 18.6833 6 17.3833 6 16C6 14.6167 6.26267 13.3167 6.788 12.1C7.31267 10.8833 8.025 9.825 8.925 8.925C9.825 8.025 10.8833 7.31233 12.1 6.787C13.3167 6.26233 14.6167 6 16 6C17.3833 6 18.6833 6.26233 19.9 6.787C21.1167 7.31233 22.175 8.025 23.075 8.925C23.975 9.825 24.6873 10.8833 25.212 12.1C25.7373 13.3167 26 14.6167 26 16C26 17.3833 25.7373 18.6833 25.212 19.9C24.6873 21.1167 23.975 22.175 23.075 23.075C22.175 23.975 21.1167 24.6873 19.9 25.212C18.6833 25.7373 17.3833 26 16 26ZM16 24C18.2167 24 20.1043 23.221 21.663 21.663C23.221 20.1043 24 18.2167 24 16C24 13.7833 23.221 11.8957 21.663 10.337C20.1043 8.779 18.2167 8 16 8C13.7833 8 11.896 8.779 10.338 10.337C8.77933 11.8957 8 13.7833 8 16C8 18.2167 8.77933 20.1043 10.338 21.663C11.896 23.221 13.7833 24 16 24Z" fill="#FDECEC"/>
</svg>
