<svg width="8" height="12" viewBox="0 0 8 12" fill="none" xmlns="http://www.w3.org/2000/svg">
<path d="M3.35 12V10.5667C2.76111 10.4333 2.25289 10.1778 1.82533 9.8C1.39733 9.42222 1.08333 8.88889 0.883331 8.2L2.11666 7.7C2.28333 8.23333 2.53066 8.63889 2.85866 8.91667C3.18622 9.19444 3.61666 9.33333 4.15 9.33333C4.60555 9.33333 4.99178 9.23067 5.30866 9.02533C5.62511 8.81956 5.78333 8.5 5.78333 8.06667C5.78333 7.67778 5.66111 7.36933 5.41666 7.14133C5.17222 6.91378 4.60555 6.65556 3.71666 6.36667C2.76111 6.06667 2.10555 5.70844 1.75 5.292C1.39444 4.87511 1.21666 4.36667 1.21666 3.76667C1.21666 3.04444 1.45 2.48333 1.91666 2.08333C2.38333 1.68333 2.86111 1.45556 3.35 1.4V0H4.68333V1.4C5.23889 1.48889 5.69733 1.69156 6.05866 2.008C6.41955 2.32489 6.68333 2.71111 6.85 3.16667L5.61666 3.7C5.48333 3.34444 5.29444 3.07778 5.05 2.9C4.80555 2.72222 4.47222 2.63333 4.05 2.63333C3.56111 2.63333 3.18889 2.74178 2.93333 2.95867C2.67778 3.17511 2.55 3.44444 2.55 3.76667C2.55 4.13333 2.71666 4.42222 3.05 4.63333C3.38333 4.84444 3.96111 5.06667 4.78333 5.3C5.55 5.52222 6.13066 5.87489 6.52533 6.358C6.91955 6.84156 7.11666 7.4 7.11666 8.03333C7.11666 8.82222 6.88333 9.42222 6.41666 9.83333C5.95 10.2444 5.37222 10.5 4.68333 10.6V12H3.35Z" fill="#9CA3AF"/>
</svg>
