<svg width="14" height="14" viewBox="0 0 14 14" fill="none" xmlns="http://www.w3.org/2000/svg">
<path d="M6.33337 7.66668H7.66671V3.66668H6.33337V7.66668ZM7.00004 10.3333C7.18893 10.3333 7.34737 10.2693 7.47537 10.1413C7.60293 10.0138 7.66671 9.85557 7.66671 9.66668C7.66671 9.47779 7.60293 9.31934 7.47537 9.19134C7.34737 9.06379 7.18893 9.00001 7.00004 9.00001C6.81115 9.00001 6.65293 9.06379 6.52537 9.19134C6.39737 9.31934 6.33337 9.47779 6.33337 9.66668C6.33337 9.85557 6.39737 10.0138 6.52537 10.1413C6.65293 10.2693 6.81115 10.3333 7.00004 10.3333ZM7.00004 13.6667C6.07782 13.6667 5.21115 13.4916 4.40004 13.1413C3.58893 12.7916 2.88337 12.3167 2.28337 11.7167C1.68337 11.1167 1.20849 10.4111 0.858707 9.60001C0.508485 8.7889 0.333374 7.92223 0.333374 7.00001C0.333374 6.07779 0.508485 5.21112 0.858707 4.40001C1.20849 3.5889 1.68337 2.88334 2.28337 2.28334C2.88337 1.68334 3.58893 1.20823 4.40004 0.85801C5.21115 0.508232 6.07782 0.333344 7.00004 0.333344C7.92226 0.333344 8.78893 0.508232 9.60004 0.85801C10.4112 1.20823 11.1167 1.68334 11.7167 2.28334C12.3167 2.88334 12.7916 3.5889 13.1414 4.40001C13.4916 5.21112 13.6667 6.07779 13.6667 7.00001C13.6667 7.92223 13.4916 8.7889 13.1414 9.60001C12.7916 10.4111 12.3167 11.1167 11.7167 11.7167C11.1167 12.3167 10.4112 12.7916 9.60004 13.1413C8.78893 13.4916 7.92226 13.6667 7.00004 13.6667ZM7.00004 12.3333C8.47782 12.3333 9.73626 11.814 10.7754 10.7753C11.814 9.73623 12.3334 8.47779 12.3334 7.00001C12.3334 5.52223 11.814 4.26379 10.7754 3.22468C9.73626 2.18601 8.47782 1.66668 7.00004 1.66668C5.52226 1.66668 4.26404 2.18601 3.22537 3.22468C2.18626 4.26379 1.66671 5.52223 1.66671 7.00001C1.66671 8.47779 2.18626 9.73623 3.22537 10.7753C4.26404 11.814 5.52226 12.3333 7.00004 12.3333Z" fill="#BF3636"/>
</svg>
