<svg width="12" height="12" viewBox="0 0 12 12" fill="none" xmlns="http://www.w3.org/2000/svg">
    <path d="M2.99984 5.33464C2.35539 5.33464 1.80539 5.10686 1.34984 4.6513C0.894282 4.19575 0.666504 3.64575 0.666504 3.0013C0.666504 2.35686 0.894282 1.80686 1.34984 1.3513C1.80539 0.895747 2.35539 0.667969 2.99984 0.667969C3.64428 0.667969 4.19428 0.895747 4.64984 1.3513C5.10539 1.80686 5.33317 2.35686 5.33317 3.0013C5.33317 3.64575 5.10539 4.19575 4.64984 4.6513C4.19428 5.10686 3.64428 5.33464 2.99984 5.33464ZM2.99984 4.0013C3.27761 4.0013 3.51362 3.90397 3.70784 3.7093C3.9025 3.51508 3.99984 3.27908 3.99984 3.0013C3.99984 2.72352 3.9025 2.48752 3.70784 2.2933C3.51362 2.09864 3.27761 2.0013 2.99984 2.0013C2.72206 2.0013 2.48606 2.09864 2.29184 2.2933C2.09717 2.48752 1.99984 2.72352 1.99984 3.0013C1.99984 3.27908 2.09717 3.51508 2.29184 3.7093C2.48606 3.90397 2.72206 4.0013 2.99984 4.0013ZM8.99984 11.3346C8.35539 11.3346 7.80539 11.1069 7.34984 10.6513C6.89428 10.1957 6.6665 9.64575 6.6665 9.0013C6.6665 8.35686 6.89428 7.80686 7.34984 7.3513C7.80539 6.89575 8.35539 6.66797 8.99984 6.66797C9.64428 6.66797 10.1943 6.89575 10.6498 7.3513C11.1054 7.80686 11.3332 8.35686 11.3332 9.0013C11.3332 9.64575 11.1054 10.1957 10.6498 10.6513C10.1943 11.1069 9.64428 11.3346 8.99984 11.3346ZM8.99984 10.0013C9.27761 10.0013 9.51361 9.90397 9.70784 9.7093C9.9025 9.51508 9.99984 9.27908 9.99984 9.0013C9.99984 8.72352 9.9025 8.48752 9.70784 8.2933C9.51361 8.09863 9.27761 8.0013 8.99984 8.0013C8.72206 8.0013 8.48606 8.09863 8.29184 8.2933C8.09717 8.48752 7.99984 8.72352 7.99984 9.0013C7.99984 9.27908 8.09717 9.51508 8.29184 9.7093C8.48606 9.90397 8.72206 10.0013 8.99984 10.0013ZM1.59984 11.3346L0.666504 10.4013L10.3998 0.667969L11.3332 1.6013L1.59984 11.3346Z" fill="#9CA3AF"/>
</svg>
