<svg width="164" height="140" viewBox="0 0 164 140" fill="none" xmlns="http://www.w3.org/2000/svg">
<g clip-path="url(#clip0_1677_10414)">
<path d="M68.3484 121.626L70.1228 115.844C67.9878 113.493 65.3116 111.699 62.3264 110.617C65.2429 115.452 62.4168 121.759 63.5945 127.282C63.975 129.002 64.7374 130.614 65.8251 131.999C66.9129 133.384 68.2982 134.506 69.8783 135.282L72.5709 138.62C73.9825 136.153 74.8427 133.408 75.0921 130.575C75.3416 127.743 74.9744 124.89 74.0158 122.213C73.4632 120.717 72.7245 119.296 71.8171 117.985C70.217 119.867 68.3484 121.626 68.3484 121.626Z" fill="#F2F2F2"/>
<path d="M58.5917 122.365L57.6026 116.398C54.6439 115.246 51.4488 114.835 48.295 115.199C53.0603 118.225 53.3419 125.131 56.8576 129.549C57.9647 130.918 59.3655 132.021 60.9563 132.775C62.5472 133.529 64.2872 133.915 66.0474 133.905L69.9454 135.691C70.109 132.853 69.6555 130.012 68.6163 127.366C67.5772 124.719 65.977 122.33 63.926 120.362C62.7644 119.269 61.47 118.327 60.0733 117.558C59.48 119.957 58.5917 122.365 58.5917 122.365Z" fill="#F2F2F2"/>
<path d="M116.666 137.137L113.933 137.137L112.632 126.588L116.666 126.588L116.666 137.137Z" fill="#FFB6B6"/>
<path d="M117.363 139.788L108.55 139.787V139.676C108.55 138.765 108.912 137.893 109.555 137.249C110.198 136.605 111.071 136.244 111.98 136.244H111.98L113.59 135.021L116.594 136.244L117.363 136.244L117.363 139.788Z" fill="#2F2E41"/>
<path d="M160.817 127.161L158.953 129.162L150.354 122.921L153.105 119.969L160.817 127.161Z" fill="#FFB6B6"/>
<path d="M163.23 128.457L157.221 134.908L157.139 134.832C156.474 134.211 156.082 133.352 156.05 132.442C156.018 131.532 156.349 130.647 156.969 129.981L156.969 129.981L157.173 127.969L160.115 126.604L160.639 126.041L163.23 128.457Z" fill="#2F2E41"/>
<path d="M156.772 121.233L153.884 127.278L136.144 115.526L133.563 112.007L125.101 100.471L121.662 105.932L119.268 111.641C118.488 112.15 117.831 112.826 117.344 113.621C116.857 114.415 116.552 115.307 116.452 116.234L116.342 117.244L117.855 130.849L112.106 132.615L108.805 114.339L109.884 110.379L110.995 104.82L116.589 87.2539H131.559L140.145 105.541L140.773 109.267L143.207 112.063L156.772 121.233Z" fill="#2F2E41"/>
<path d="M125.662 58.5137L128.182 60.4337L131.221 61.3682C131.221 61.3682 132.478 79.052 133.61 80.1848C134.742 81.3176 133.721 81.348 133.948 82.8196C134.176 84.2911 134.729 87.3076 134.729 87.3076C127.087 91.3551 120.5 91.4637 115.208 86.7274C115.14 86.4344 115.175 86.1271 115.305 85.8563C115.436 85.5856 115.656 85.3677 115.927 85.2388C116.912 84.7159 115.019 82.2753 115.824 81.8672C116.629 81.4592 115.497 77.9193 115.497 77.9193L116.239 70.5335L115.653 69.3529L117.085 62.1288L119.569 61.2209L120.561 58.8282L125.662 58.5137Z" fill="#3F3D56"/>
<path d="M127.241 89.9436C127.23 89.6243 127.289 89.3063 127.413 89.0121C127.538 88.718 127.726 88.4548 127.963 88.2411C128.201 88.0274 128.482 87.8684 128.788 87.7753C129.093 87.6822 129.415 87.6572 129.732 87.7022L133.283 80.7949L135.262 84.3126L131.586 90.3326C131.475 90.8591 131.175 91.3266 130.743 91.6467C130.311 91.9667 129.776 92.117 129.241 92.0691C128.705 92.0211 128.206 91.7783 127.837 91.3865C127.469 90.9948 127.257 90.4814 127.241 89.9436H127.241Z" fill="#FFB6B6"/>
<path d="M133.222 88.2535L140.839 76.4402L140.814 76.3859C140.785 76.3236 139.061 72.5958 137.389 69.1815C137.132 68.6557 136.876 68.1373 136.627 67.6409C136.52 67.4266 136.414 67.2169 136.31 67.0116C135.608 65.6268 134.995 64.4822 134.629 63.9385C133.819 62.7092 132.613 61.7941 131.212 61.345L131.177 61.3359L131.143 61.35C130.458 61.6394 129.891 62.1539 129.537 62.8086C129.183 63.4633 129.063 64.2192 129.196 64.9516C129.857 68.4844 131.329 71.8151 133.497 74.6809L134.731 76.3096L130.44 85.6454L133.222 88.2535Z" fill="#3F3D56"/>
<path d="M107.028 42.9721C107.238 43.2131 107.392 43.4971 107.481 43.8043C107.569 44.1114 107.589 44.4342 107.539 44.7498C107.489 45.0654 107.37 45.3662 107.191 45.6311C107.013 45.8959 106.778 46.1183 106.504 46.2826L108.092 53.8861L104.341 52.4002L103.408 45.4075C103.163 44.9288 103.102 44.3766 103.236 43.8557C103.37 43.3347 103.691 42.8812 104.137 42.581C104.583 42.2808 105.124 42.1548 105.657 42.2269C106.19 42.2989 106.678 42.5641 107.028 42.9721H107.028Z" fill="#FFB6B6"/>
<path d="M103.445 48.0527L104.962 62.0294L105.016 62.0558C105.06 62.0776 106.982 63.0207 109.341 64.1439C109.738 64.3333 109.681 65.1541 110.097 65.3503C110.384 65.4854 111.14 64.9951 111.43 65.1306C114.008 66.337 116.615 67.5102 117.654 67.828C119.057 68.2727 120.569 68.224 121.94 67.6899L121.973 67.6748L121.991 67.6427C122.341 66.986 122.457 66.2294 122.32 65.4978C122.183 64.7661 121.801 64.103 121.237 63.6178C118.5 61.2898 115.261 59.63 111.773 58.7695L109.789 58.2823L107.248 48.326L103.445 48.0527Z" fill="#3F3D56"/>
<path d="M122.976 57.7214C125.729 57.7214 127.96 55.4884 127.96 52.7338C127.96 49.9792 125.729 47.7461 122.976 47.7461C120.223 47.7461 117.991 49.9792 117.991 52.7338C117.991 55.4884 120.223 57.7214 122.976 57.7214Z" fill="#FFB6B6"/>
<path d="M118.027 49.3905C118.437 48.1972 120.477 47.3695 123.785 47.2545C127.094 47.1394 127.933 51.0403 127.933 51.0403C130.141 52.8329 125.574 57.6321 125.354 57.4592L125.453 56.5576C125.617 55.064 126.316 53.8987 125.427 52.3422L124.574 52.352C123.471 52.5641 122.369 52.7762 121.267 52.9883L122.572 51.8385L122.535 51.7815C121.98 52.0709 121.376 52.2544 120.754 52.3228C120.052 52.3641 119.285 52.0847 118.949 51.4672C118.86 51.2975 118.805 51.1115 118.788 50.9202C117.842 51.2983 117.41 52.4652 117.41 52.4652C117.41 52.4652 117.617 50.5838 118.027 49.3905Z" fill="#2F2E41"/>
<path d="M20.8528 49.6902C20.7852 49.6043 20.7124 49.5228 20.6348 49.4459C20.6537 49.4198 20.6727 49.3913 20.6917 49.3652L20.8528 49.6902Z" fill="#2F2E41"/>
<path d="M21.8223 69.7514C21.0069 71.2005 19.3785 72.0093 17.7644 72.4054C15.9513 72.8806 14.0421 72.8436 12.2488 72.2986C12.0212 72.2251 11.7937 72.1397 11.5732 72.0449C11.6792 71.7632 11.7632 71.4738 11.8245 71.1792C11.907 70.7805 11.9483 70.3744 11.9477 69.9672C11.7681 70.3179 11.5355 70.6387 11.258 70.9183C11.0439 71.1433 10.8008 71.3387 10.5351 71.4993C9.71077 70.9988 8.99703 70.3354 8.43737 69.5498C8.47291 69.462 8.50848 69.3743 8.54166 69.2865C8.71378 68.8282 8.85008 68.3572 8.94934 67.8777C9.08402 67.2294 9.15153 66.5689 9.15082 65.9068C8.85857 66.4773 8.47954 66.999 8.0273 67.4531C7.89171 67.5983 7.74768 67.7353 7.59593 67.8635C7.36093 67.1493 7.27008 66.3956 7.32867 65.646C7.38726 64.8964 7.59412 64.166 7.93723 63.4971C8.87586 61.761 10.6962 60.7293 12.3175 59.6074C13.9411 58.4856 15.5648 56.9677 15.7022 54.9968C15.7947 53.6662 15.1784 52.3333 15.4249 51.0241C15.5286 50.472 15.7817 49.959 16.1566 49.5409C16.5316 49.1228 17.014 48.8157 17.5514 48.653C18.0887 48.4903 18.6604 48.4783 19.2041 48.6183C19.7477 48.7583 20.2426 49.0449 20.6348 49.4469C19.7151 50.7513 18.8002 52.1008 18.428 53.652C18.0488 55.2316 18.3593 57.0839 19.6037 58.1298C20.0304 58.4903 20.5542 58.7465 20.8837 59.1971C21.3221 59.7948 21.3245 60.5917 21.3956 61.3269C21.5378 62.7571 22.0048 64.1327 22.256 65.5486C22.5097 66.9622 22.5239 68.4967 21.8223 69.7514Z" fill="#2F2E41"/>
<path d="M5.10754 128.566L7.27086 130.238L14.7472 122.685L11.5544 120.217L5.10754 128.566Z" fill="#A0616A"/>
<path d="M5.19956 126.932L8.77686 129.371L7.64478 130.837L9.16092 135.598C9.23583 135.833 9.23368 136.086 9.15477 136.32C9.07586 136.553 8.92433 136.756 8.7223 136.897C8.52027 137.039 8.27832 137.112 8.03177 137.106C7.78523 137.1 7.54699 137.016 7.35186 136.865L3.28071 133.717L3.69879 131.725L2.305 132.963L0.77002 131.776L5.19956 126.932Z" fill="#2F2E41"/>
<path d="M16.0826 53.9045C16.0823 54.7502 16.2895 55.5831 16.686 56.33C17.0824 57.0769 17.6561 57.715 18.3566 58.1883C19.057 58.6616 19.8629 58.9556 20.7034 59.0445C21.5439 59.1334 22.3934 59.0145 23.1773 58.6982C23.9612 58.3819 24.6555 57.8779 25.1992 57.2304C25.743 56.583 26.1196 55.8118 26.296 54.9847C26.4724 54.1576 26.4432 53.2998 26.2109 52.4866C25.9787 51.6734 25.5505 50.9298 24.9639 50.3208L24.9391 50.2961C24.8978 50.2526 24.8565 50.2092 24.8131 50.1679C24.8128 50.1679 24.8126 50.1678 24.8123 50.1677C24.8121 50.1676 24.8118 50.1675 24.8117 50.1673C24.8115 50.1671 24.8113 50.1669 24.8112 50.1666C24.8111 50.1664 24.8111 50.1661 24.8111 50.1658C24.7574 50.1162 24.7037 50.0666 24.6479 50.0191C23.7391 49.2214 22.4618 48.3555 21.1586 48.3555C18.3062 48.3555 16.0826 51.0504 16.0826 53.9045Z" fill="#2F2E41"/>
<path d="M45.514 51.2509C45.5387 51.5264 45.5027 51.8041 45.4086 52.0642C45.3145 52.3244 45.1645 52.5607 44.9693 52.7566C44.774 52.9525 44.5382 53.1032 44.2784 53.198C44.0186 53.2928 43.7413 53.3295 43.4658 53.3054L30.6796 64.8572L28.4792 61.3799L41.7395 51.1183C41.8106 50.6579 42.0479 50.2396 42.4066 49.9427C42.7653 49.6457 43.2204 49.4907 43.6856 49.507C44.1509 49.5234 44.594 49.7099 44.9309 50.0313C45.2679 50.3527 45.4754 50.7866 45.514 51.2508V51.2509Z" fill="#A0616A"/>
<path d="M25.215 68.344C25.215 68.344 25.6907 69.2232 27.3158 67.8656C28.6168 66.7788 34.8497 62.0604 36.1925 60.1269C36.4991 60.2485 36.8374 60.2645 37.1541 60.1725C37.4708 60.0805 37.7479 59.8856 37.9418 59.6187L34.2627 56.3945C33.1619 56.5213 33.1855 57.2613 33.3001 57.6814L30.5249 58.9396L23.3584 63.5223L24.8598 67.7146L25.215 68.344Z" fill="#628794"/>
<path d="M18.2723 76.4436L18.0043 77.7206L17.7767 82.431L27.7953 82.982L27.4842 75.7372L26.5131 74.1406L18.2723 76.4436Z" fill="#A0616A"/>
<path d="M22.5183 59.4327C24.9096 59.4327 26.8481 57.4929 26.8481 55.1001C26.8481 52.7073 24.9096 50.7676 22.5183 50.7676C20.127 50.7676 18.1885 52.7073 18.1885 55.1001C18.1885 57.4929 20.127 59.4327 22.5183 59.4327Z" fill="#A0616A"/>
<path d="M14.8312 71.0804L14.8046 67.4791C14.804 66.1832 15.2422 64.9254 16.0478 63.9109C16.8534 62.8963 17.9788 62.1848 19.2405 61.8925L19.2568 61.8887L20.113 60.7344L23.5914 61.0826L24.229 62.3864L26.7496 63.8882L27.72 67.0098C28.1409 67.2905 28.4997 67.6549 28.7739 68.0802C29.0482 68.5055 29.2321 68.9827 29.3142 69.4822C29.6437 71.588 28.1702 73.6951 27.9949 73.9367L27.5433 76.4817L17.7189 78.2162L17.6392 78.2263L14.8312 71.0804Z" fill="#628794"/>
<path d="M27.8167 54.3272C27.3116 54.6472 26.7876 54.9363 26.2475 55.1928C25.6994 55.4563 25.126 55.6637 24.5362 55.8119C24.3675 55.4414 24.1609 55.0893 23.9199 54.7612C23.9819 55.15 23.9835 55.546 23.9247 55.9352C22.947 56.093 21.9457 56.0108 21.0069 55.6957L20.1915 54.3272L20.1299 55.8546C19.4544 55.9779 18.7812 56.0941 18.1057 56.2151C18.0654 56.2198 18.0251 56.2293 17.9872 56.2364C17.5676 54.3438 18.1626 52.259 19.4852 50.9972C20.1418 50.3773 20.961 49.9568 21.8472 49.7847C22.7335 49.6125 23.6504 49.6958 24.4912 50.0248C24.5978 50.0675 24.7069 50.1149 24.8112 50.1648C24.8111 50.1651 24.8112 50.1654 24.8113 50.1657C24.8114 50.166 24.8116 50.1662 24.8118 50.1665C24.8121 50.1667 24.8123 50.1669 24.8126 50.167C24.8129 50.1671 24.8132 50.1671 24.8135 50.1671C24.8752 50.198 24.9273 50.2715 24.996 50.2644C27.9541 49.9347 28.049 52.2305 27.8167 54.3272Z" fill="#2F2E41"/>
<path d="M20.6136 122.979L22.7803 124.647L30.2416 117.079L27.0438 114.617L20.6136 122.979Z" fill="#A0616A"/>
<path d="M20.8988 121.496L24.481 123.929L23.3519 125.397L24.8776 130.154C24.953 130.389 24.9513 130.642 24.8729 130.876C24.7945 131.11 24.6433 131.313 24.4416 131.455C24.2399 131.597 23.9981 131.67 23.7515 131.665C23.5049 131.66 23.2665 131.576 23.0711 131.425L18.9936 128.286L19.4077 126.292L18.0164 127.533L16.479 126.349L20.8988 121.496Z" fill="#2F2E41"/>
<path d="M13.583 113.744L13.5829 113.715L14.6097 111.945L13.5612 109.64L13.5297 103.718L13.6997 102.829C13.9283 101.634 13.8618 100.4 13.5059 99.2364L13.4868 95.6319C13.4499 94.729 14.8479 93.9348 14.5219 93.1821C11.4405 86.0668 17.6684 80.6389 17.7105 80.5953L17.8378 80.4629L18.5283 80.9862L19.1855 80.987L28.0547 82.6041L28.1188 82.7236C28.4676 83.3784 29.1408 85.6351 29.1808 86.6563C29.6228 87.1684 34.6578 92.9983 35.1054 93.4034C38.13 96.1417 39.8617 100.674 40.6247 103.132C40.8142 103.74 40.8524 104.384 40.736 105.01C40.6196 105.636 40.352 106.223 39.9567 106.722L28.5065 119.271L25.4251 116.425L31.6207 105.128L31.174 103.982C30.3723 103.834 29.6469 103.412 29.1214 102.789L27.8668 101.299C27.5194 100.887 27.2987 100.384 27.2313 99.8497L26.4705 99.758L23.7452 96.895L21.8545 114.028L21.3405 115.382L12.3886 125.912L8.59619 123.54L13.583 113.744Z" fill="#2F2E41"/>
<path d="M12.2158 40.1743C12.0438 40.3909 11.9214 40.6427 11.8572 40.9118C11.7929 41.1809 11.7884 41.4608 11.844 41.7319C11.8996 42.0029 12.0139 42.2584 12.1789 42.4805C12.3438 42.7025 12.5554 42.8857 12.7988 43.0171L9.95227 51.4493L12.2766 60.3853L16.0246 58.6899L13.7118 51.9497L15.4421 42.1389C15.6356 41.7152 15.667 41.2352 15.5304 40.7899C15.3938 40.3445 15.0987 39.9648 14.701 39.7226C14.3033 39.4805 13.8307 39.3927 13.3727 39.4759C12.9146 39.5592 12.503 39.8077 12.2158 40.1743Z" fill="#A0616A"/>
<path d="M15.6465 67.7491C15.6465 67.7491 14.7662 68.2221 14.154 66.1943C13.6639 64.571 10.3284 55.7568 10.2683 53.403C9.94535 53.336 9.65389 53.1634 9.4398 52.9124C9.22572 52.6613 9.10118 52.3462 9.08582 52.0165L13.9303 51.3457C14.7803 52.0569 14.3543 52.6622 14.0278 52.9501L15.6778 55.7467L19.1265 63.2965L16.2889 67.4185L15.6465 67.7491Z" fill="#628794"/>
<path d="M18.1047 56.2144C18.6022 54.7132 19.4943 53.3736 20.6873 52.3362C21.8804 51.2987 23.3305 50.6017 24.8855 50.3181C24.8917 50.3161 24.9123 50.3078 24.9392 50.2954C24.9557 50.2851 24.9764 50.2747 24.997 50.2644C24.9351 50.2293 24.8752 50.1983 24.8132 50.1672C24.8129 50.1672 24.8126 50.1672 24.8124 50.1671C24.8121 50.167 24.8119 50.1668 24.8117 50.1666C24.8115 50.1664 24.8114 50.1662 24.8113 50.166C24.8112 50.1657 24.8111 50.1654 24.8111 50.1652C24.7574 50.1156 24.7037 50.066 24.648 50.0184L24.491 50.0246C24.491 50.0246 18.9743 49.1504 18.1047 56.2144Z" fill="#FD6584"/>
<path d="M89.2901 104.495C89.8922 103.589 89.5358 102.293 88.4941 101.599C87.4524 100.906 86.1199 101.078 85.5178 101.983C84.9157 102.889 85.2721 104.185 86.3138 104.879C87.3555 105.572 88.688 105.4 89.2901 104.495Z" fill="#F2F2F2"/>
<path d="M77.0681 70.6959C77.6702 69.7903 77.3138 68.4941 76.2721 67.8006C75.2304 67.1071 73.8978 67.279 73.2958 68.1846C72.6937 69.0901 73.05 70.3864 74.0917 71.0799C75.1334 71.7734 76.466 71.6014 77.0681 70.6959Z" fill="#F2F2F2"/>
<path d="M128.179 122.727C128.781 121.822 128.424 120.525 127.383 119.832C126.341 119.138 125.008 119.31 124.406 120.216C123.804 121.121 124.161 122.418 125.202 123.111C126.244 123.805 127.577 123.633 128.179 122.727Z" fill="#F2F2F2"/>
<path d="M24.8464 13.9947C25.4485 13.0892 25.0921 11.7929 24.0504 11.0994C23.0087 10.4059 21.6762 10.5779 21.0741 11.4834C20.472 12.389 20.8284 13.6852 21.87 14.3787C22.9117 15.0722 24.2443 14.9003 24.8464 13.9947Z" fill="#F2F2F2"/>
<path d="M73.0681 3.32088C73.6702 2.41533 73.3138 1.11907 72.2721 0.425589C71.2304 -0.267889 69.8978 -0.0959761 69.2958 0.809571C68.6937 1.71512 69.05 3.0114 70.0917 3.70487C71.1334 4.39835 72.466 4.22643 73.0681 3.32088Z" fill="#F2F2F2"/>
<path d="M50.246 92.8678C50.8481 91.9622 50.4918 90.666 49.4501 89.9725C48.4084 89.279 47.0758 89.4509 46.4737 90.3565C45.8716 91.262 46.228 92.5583 47.2697 93.2518C48.3114 93.9452 49.644 93.7733 50.246 92.8678Z" fill="#E6E6E6"/>
<path d="M149.717 140H5.20841C5.13836 140 5.07126 139.972 5.02181 139.922C4.97235 139.873 4.94458 139.806 4.94458 139.735C4.94458 139.665 4.97235 139.598 5.02181 139.549C5.07126 139.499 5.13836 139.471 5.20841 139.471H149.717C149.787 139.471 149.854 139.499 149.904 139.548C149.953 139.598 149.981 139.665 149.981 139.735C149.981 139.806 149.953 139.873 149.904 139.923C149.854 139.972 149.787 140 149.717 140Z" fill="#CCCCCC"/>
<path d="M32.105 52.067C30.8894 52.0635 29.7178 51.6118 28.814 50.7983C27.9103 49.9849 27.3379 48.8667 27.2062 47.6575L24.385 21.4399C24.2464 20.1382 24.6295 18.8346 25.4502 17.8152C26.2709 16.7958 27.4623 16.1437 28.7629 16.0021L112.53 6.97708C113.831 6.83832 115.133 7.2216 116.152 8.04283C117.171 8.86406 117.823 10.0562 117.964 11.3576L120.785 37.575C120.924 38.8768 120.541 40.1804 119.72 41.1999C118.899 42.2194 117.708 42.8714 116.407 43.0131L116.395 42.9025L116.407 43.0131L32.6407 52.0381C32.4627 52.0573 32.2839 52.067 32.105 52.067Z" fill="#E6E6E6"/>
<path d="M111.607 8.19532C111.45 8.19538 111.292 8.20386 111.136 8.22073L30.3892 16.9204C29.8246 16.9812 29.2775 17.1527 28.7792 17.4251C28.2808 17.6975 27.841 18.0655 27.4847 18.508C27.1285 18.9505 26.8628 19.4589 26.7029 20.0041C26.543 20.5493 26.492 21.1207 26.5528 21.6857L27.9792 34.9415C28.2098 37.0845 28.8599 39.1611 29.8925 41.0526C30.9251 42.9442 32.3199 44.6137 33.9974 45.9658C35.6748 47.318 37.6019 48.3263 39.6688 48.9332C41.7357 49.5401 43.9017 49.7337 46.0434 49.503L102.822 43.3856C104.957 43.1556 107.026 42.507 108.91 41.4769C110.795 40.4468 112.458 39.0553 113.806 37.382C115.153 35.7086 116.157 33.7861 116.762 31.7243C117.367 29.6624 117.56 27.5016 117.33 25.3651L115.898 12.0596C115.784 10.9997 115.283 10.0193 114.491 9.30624C113.699 8.59316 112.672 8.19758 111.607 8.19531V8.19532Z" fill="white"/>
<path d="M94.6029 21.9904L49.4726 26.8528C49.3435 26.8669 49.213 26.8554 49.0884 26.8189C48.9638 26.7825 48.8476 26.7218 48.7465 26.6404C48.6453 26.559 48.5612 26.4584 48.499 26.3445C48.4367 26.2305 48.3975 26.1054 48.3836 25.9762C48.3697 25.8471 48.3814 25.7165 48.418 25.5918C48.4546 25.4672 48.5154 25.351 48.5969 25.2499C48.6784 25.1489 48.779 25.0648 48.893 25.0027C49.0069 24.9405 49.132 24.9015 49.2611 24.8877L94.3914 20.0254C94.5205 20.0113 94.651 20.0228 94.7756 20.0592C94.9002 20.0957 95.0164 20.1564 95.1175 20.2378C95.2187 20.3192 95.3028 20.4198 95.3651 20.5337C95.4273 20.6477 95.4665 20.7728 95.4804 20.902C95.4943 21.0311 95.4826 21.1617 95.446 21.2863C95.4094 21.411 95.3487 21.5271 95.2672 21.6282C95.1857 21.7293 95.085 21.8134 94.9711 21.8755C94.8571 21.9377 94.732 21.9767 94.6029 21.9904Z" fill="#628794"/>
<path d="M95.2519 28.0216L50.1215 32.8839C49.8611 32.912 49.6002 32.8354 49.3962 32.671C49.1923 32.5065 49.0619 32.2678 49.0339 32.0072C49.0058 31.7466 49.0824 31.4855 49.2467 31.2814C49.411 31.0773 49.6497 30.9469 49.9101 30.9188L95.0404 26.0565C95.3008 26.0284 95.5617 26.105 95.7657 26.2694C95.9697 26.4339 96.1 26.6726 96.1281 26.9332C96.1561 27.1938 96.0795 27.4549 95.9152 27.659C95.7509 27.8631 95.5123 27.9935 95.2519 28.0216Z" fill="#628794"/>
<path d="M56.0299 38.3479L50.7706 38.9145C50.5102 38.9426 50.2493 38.866 50.0453 38.7015C49.8413 38.5371 49.711 38.2983 49.6829 38.0378C49.6549 37.7772 49.7314 37.5161 49.8958 37.312C50.0601 37.1079 50.2987 36.9775 50.5591 36.9494L55.8184 36.3828C55.9475 36.3687 56.078 36.3802 56.2026 36.4167C56.3272 36.4531 56.4434 36.5138 56.5445 36.5952C56.6456 36.6766 56.7298 36.7772 56.792 36.8911C56.8543 37.0051 56.8935 37.1302 56.9074 37.2594C56.9213 37.3885 56.9096 37.5191 56.873 37.6438C56.8364 37.7684 56.7756 37.8846 56.6941 37.9857C56.6126 38.0867 56.512 38.1708 56.398 38.2329C56.2841 38.2951 56.1589 38.3341 56.0299 38.3479Z" fill="#628794"/>
<path d="M30.3293 22.548C31.3111 22.548 32.107 21.7515 32.107 20.7691C32.107 19.7867 31.3111 18.9902 30.3293 18.9902C29.3474 18.9902 28.5515 19.7867 28.5515 20.7691C28.5515 21.7515 29.3474 22.548 30.3293 22.548Z" fill="#3F3D56"/>
<path d="M109.884 13.6534C110.866 13.6534 111.662 12.857 111.662 11.8746C111.662 10.8921 110.866 10.0957 109.884 10.0957C108.902 10.0957 108.106 10.8921 108.106 11.8746C108.106 12.857 108.902 13.6534 109.884 13.6534Z" fill="#3F3D56"/>
<path d="M85.8494 50.1714C85.6861 50.0279 85.5567 49.8497 85.4707 49.6499C85.3848 49.45 85.3444 49.2336 85.3525 49.0161C85.4418 46.4324 85.0165 43.8566 84.1015 41.4389C84.0239 41.2357 83.9925 41.0177 84.0097 40.8008C84.0268 40.5839 84.0921 40.3736 84.2006 40.1851C84.3047 40.0039 84.4471 39.8477 84.6179 39.7275C84.7886 39.6073 84.9837 39.5259 85.1892 39.4891C87.2555 38.2414 89.3738 37.8911 91.4865 38.4482C91.8272 38.398 92.1746 38.471 92.4663 38.654C92.7581 38.8371 92.975 39.1181 93.0783 39.4468C93.9337 42.2254 94.4094 45.107 94.4927 48.0132C94.5007 48.3619 94.3827 48.7017 94.1604 48.9703C93.938 49.2389 93.6264 49.4182 93.2825 49.4753L87.0307 50.5088C86.8212 50.5439 86.6064 50.5318 86.4021 50.4735C86.1977 50.4151 86.0089 50.3119 85.8494 50.1714Z" fill="#628794"/>
<path d="M86.4047 42.6439L91.6667 41.7741C91.7099 41.767 91.7514 41.7515 91.7887 41.7284C91.8259 41.7053 91.8583 41.6751 91.8838 41.6394C91.9094 41.6038 91.9277 41.5635 91.9377 41.5208C91.9477 41.478 91.9491 41.4338 91.942 41.3905C91.9348 41.3472 91.9192 41.3058 91.896 41.2685C91.8729 41.2313 91.8426 41.199 91.8069 41.1735C91.7713 41.148 91.7309 41.1298 91.6882 41.1199C91.6455 41.11 91.6012 41.1087 91.558 41.1159L86.2961 41.9858C86.209 42.0004 86.1313 42.0489 86.08 42.1208C86.0286 42.1927 86.0079 42.282 86.0223 42.3691C86.0367 42.4562 86.085 42.5341 86.1567 42.5856C86.2284 42.6372 86.3176 42.6581 86.4047 42.6439Z" fill="white"/>
<path d="M86.8393 45.2766L92.1013 44.4068C92.1885 44.3923 92.2664 44.3438 92.3179 44.2719C92.3694 44.2 92.3902 44.1106 92.3758 44.0233C92.3614 43.936 92.313 43.8581 92.2411 43.8065C92.1692 43.755 92.0799 43.7342 91.9926 43.7486L86.7307 44.6185C86.6874 44.6255 86.646 44.641 86.6087 44.6641C86.5714 44.6872 86.5391 44.7175 86.5135 44.7531C86.4879 44.7887 86.4696 44.8291 86.4597 44.8718C86.4497 44.9145 86.4482 44.9588 86.4554 45.002C86.4625 45.0453 86.4781 45.0868 86.5013 45.124C86.5245 45.1612 86.5548 45.1935 86.5904 45.219C86.6261 45.2445 86.6664 45.2628 86.7092 45.2726C86.7519 45.2825 86.7961 45.2839 86.8393 45.2766Z" fill="white"/>
<path d="M87.274 47.9094L92.536 47.0396C92.6232 47.0251 92.7011 46.9766 92.7526 46.9047C92.8041 46.8328 92.8249 46.7434 92.8105 46.6561C92.7961 46.5688 92.7476 46.4909 92.6758 46.4394C92.6039 46.3878 92.5145 46.367 92.4273 46.3814L87.1654 47.2513C87.1222 47.2584 87.0808 47.274 87.0436 47.2971C87.0065 47.3203 86.9742 47.3505 86.9487 47.3861C86.9232 47.4217 86.905 47.462 86.8951 47.5046C86.8851 47.5473 86.8837 47.5915 86.8908 47.6347C86.8979 47.6779 86.9135 47.7193 86.9366 47.7565C86.9598 47.7937 86.99 47.826 87.0256 47.8515C87.0611 47.877 87.1014 47.8952 87.144 47.9052C87.1867 47.9151 87.2308 47.9166 87.274 47.9094Z" fill="white"/>
</g>
<defs>
<clipPath id="clip0_1677_10414">
<rect width="162.46" height="140" fill="white" transform="translate(0.77002)"/>
</clipPath>
</defs>
</svg>
